<svg width="100" height="100" viewBox="0 0 100 100" fill="none" xmlns="http://www.w3.org/2000/svg">
<rect width="100" height="100" fill="#262626"/>
<path d="M44.5 77.5V55.5H22.5V72C22.5 73.4587 23.0795 74.8576 24.1109 75.8891C25.1424 76.9205 26.5413 77.5 28 77.5H44.5Z" fill="#FFFFFF" fill-opacity="0.05"/>
<path d="M44.5 77.5H61C62.4587 77.5 63.8576 76.9205 64.8891 75.8891C65.9205 74.8576 66.5 73.4587 66.5 72V58.25C66.5 57.5207 66.2103 56.8212 65.6945 56.3055C65.1788 55.7897 64.4793 55.5 63.75 55.5H44.5V77.5Z" fill="#FFFFFF" fill-opacity="0.05"/>
<path d="M44.5 36.25C44.5 35.5207 44.2103 34.8212 43.6945 34.3055C43.1788 33.7897 42.4793 33.5 41.75 33.5H28C26.5413 33.5 25.1424 34.0795 24.1109 35.1109C23.0795 36.1424 22.5 37.5413 22.5 39V55.5H44.5V36.25Z" fill="#FFFFFF" fill-opacity="0.05"/>
<path d="M44.5 77.5V55.5M44.5 77.5H28M44.5 77.5H61M22.5 55.5V39C22.5 37.5413 23.0795 36.1424 24.1109 35.1109C25.1424 34.0795 26.5413 33.5 28 33.5H41.75C42.4793 33.5 43.1788 33.7897 43.6945 34.3055C44.2103 34.8212 44.5 35.5207 44.5 36.25V55.5M28 77.5C26.5413 77.5 25.1424 76.9205 24.1109 75.8891C23.0795 74.8576 22.5 73.4587 22.5 72V39M22.5 72V55.5M28 77.5H61M61 77.5C62.4587 77.5 63.8576 76.9205 64.8891 75.8891C65.9205 74.8576 66.5 73.4587 66.5 72V58.25C66.5 57.5207 66.2103 56.8212 65.6945 56.3055C65.1788 55.7897 64.4793 55.5 63.75 55.5H44.5M22.5 55.5H44.5" stroke="#FFFFFF" stroke-width="2" stroke-linecap="round" stroke-linejoin="round"/>
<path d="M58.25 22.5H74.75C76.2688 22.5 77.5 23.7312 77.5 25.25V41.75C77.5 43.2688 76.2688 44.5 74.75 44.5H58.25C56.7312 44.5 55.5 43.2688 55.5 41.75V25.25C55.5 23.7312 56.7312 22.5 58.25 22.5Z" fill="#FFFFFF" fill-opacity="0.05" stroke="#FFFFFF" stroke-width="2" stroke-linecap="round" stroke-linejoin="round"/>
</svg>
